<svg xmlns="http://www.w3.org/2000/svg" id="Layer_1" x="0" y="0" enable-background="new 0 0 16 16" version="1.1" viewBox="0 0 16 16" xml:space="preserve"><path id="path7" fill="#231f20" stroke="none" d="M 3.8925782,2 C 2.2975782,2 1.0000001,3.2975782 1,4.8925782 L 1,10.605469 C 1,12.200469 2.2975782,13.5 3.8925782,13.5 l 4.3535156,0 c 0.492,1.17 1.649094,1.992188 2.9960942,1.992188 1.792,0 3.25,-1.458 3.25,-3.25 0,-1.347 -0.823188,-2.5021411 -1.992188,-2.9941411 l 0,-4.3554687 C 12.499,3.2975782 11.202422,2 9.6074219,2 L 3.8925782,2 Z m 0,0.5 5.7148437,0 C 10.926422,2.5 12,3.5725782 12,4.8925782 l 0,4.1992187 c -0.244,-0.059 -0.495812,-0.097656 -0.757812,-0.097656 -0.769,0 -1.4664382,0.2795625 -2.023438,0.7265625 -0.756,-0.471 -1.6196249,-0.7265625 -2.515625,-0.7265625 -2.0859999,0 -3.8796718,1.3390621 -4.5136718,3.2890621 -0.426,-0.433 -0.6894531,-1.024734 -0.6894532,-1.677734 l 0,-5.7128906 C 1.5,3.5735782 2.5725782,2.5 3.8925782,2.5 Z M 6.734375,4.0253907 c -1.2359999,0 -2.2421874,1.0061875 -2.2421874,2.2421875 0,1.236 1.0061874,2.2402344 2.2421874,2.2402344 1.2360001,0 2.2402344,-1.0042344 2.2402344,-2.2402344 0,-1.236 -1.0042344,-2.2421875 -2.2402344,-2.2421875 z m 0,0.5 c 0.96,0 1.7402344,0.7821875 1.7402344,1.7421875 0,0.96 -0.7802344,1.7402343 -1.7402344,1.7402344 -0.9599999,0 -1.7421874,-0.7802344 -1.7421874,-1.7402344 0,-0.96 0.7821874,-1.7421875 1.7421874,-1.7421875 z M 6.701172,9.4921876 c 0.757,0 1.4877188,0.2079843 2.1367188,0.5839844 -0.519,0.576 -0.8457031,1.331016 -0.8457031,2.166016 0,0.261 0.038656,0.513812 0.097656,0.757812 l -4.1972656,0 c -0.475,0 -0.9160625,-0.144765 -1.2890625,-0.384765 0.512,-1.844 2.1666562,-3.1230474 4.0976562,-3.1230474 z m 4.541016,0 c 1.517,0 2.75,1.2330004 2.75,2.7500004 0,1.517 -1.233,2.75 -2.75,2.75 -1.5170003,0 -2.7500003,-1.233 -2.7500003,-2.75 0,-1.517 1.233,-2.7500004 2.7500003,-2.7500004 z m -0.269532,1.2519534 0,1.246094 -1.2460933,0 0,0.5 1.2460933,0 0,1.246093 0.5,0 0,-1.246093 1.246094,0 0,-0.5 -1.246094,0 0,-1.246094 -0.5,0 z"/></svg>